<mxfile host="Electron" modified="2024-07-22T18:46:21.284Z" agent="Mozilla/5.0 (Macintosh; Intel Mac OS X 10_15_7) AppleWebKit/537.36 (KHTML, like Gecko) draw.io/24.6.4 Chrome/124.0.6367.207 Electron/30.0.6 Safari/537.36" etag="GaVO65_PGbaRsEPMSWJx" version="24.6.4" type="device">
  <diagram name="Page-1" id="mWBkBfJ7am0egaiSUyn3">
    <mxGraphModel dx="1206" dy="735" grid="1" gridSize="10" guides="1" tooltips="1" connect="1" arrows="1" fold="1" page="1" pageScale="1" pageWidth="850" pageHeight="1100" math="0" shadow="0">
      <root>
        <mxCell id="0" />
        <mxCell id="1" parent="0" />
        <mxCell id="ZpaVgGnAtmKE8XHGyUxR-2" value="" style="rounded=0;whiteSpace=wrap;html=1;" vertex="1" parent="1">
          <mxGeometry x="235" y="180" width="475" height="190" as="geometry" />
        </mxCell>
        <mxCell id="ZpaVgGnAtmKE8XHGyUxR-6" value="" style="rounded=1;whiteSpace=wrap;html=1;" vertex="1" parent="1">
          <mxGeometry x="250" y="240" width="420" height="90" as="geometry" />
        </mxCell>
        <mxCell id="ZpaVgGnAtmKE8XHGyUxR-1" value="&lt;font style=&quot;font-size: 36px;&quot;&gt;Before:&lt;/font&gt;" style="text;html=1;align=center;verticalAlign=middle;resizable=0;points=[];autosize=1;strokeColor=none;fillColor=none;" vertex="1" parent="1">
          <mxGeometry x="20" y="53" width="140" height="60" as="geometry" />
        </mxCell>
        <mxCell id="ZpaVgGnAtmKE8XHGyUxR-3" value="Local Machine" style="text;html=1;align=center;verticalAlign=middle;resizable=0;points=[];autosize=1;strokeColor=none;fillColor=none;" vertex="1" parent="1">
          <mxGeometry x="230" y="140" width="100" height="30" as="geometry" />
        </mxCell>
        <mxCell id="ZpaVgGnAtmKE8XHGyUxR-4" value="mysql-UI" style="outlineConnect=0;dashed=0;verticalLabelPosition=bottom;verticalAlign=top;align=center;html=1;shape=mxgraph.aws3.ec2_compute_container;fillColor=#F58534;gradientColor=none;" vertex="1" parent="1">
          <mxGeometry x="340" y="257.75" width="60" height="34.5" as="geometry" />
        </mxCell>
        <mxCell id="ZpaVgGnAtmKE8XHGyUxR-5" value="docker-compose" style="text;html=1;align=center;verticalAlign=middle;resizable=0;points=[];autosize=1;strokeColor=none;fillColor=none;" vertex="1" parent="1">
          <mxGeometry x="370" y="210" width="110" height="30" as="geometry" />
        </mxCell>
        <mxCell id="ZpaVgGnAtmKE8XHGyUxR-7" value="mysql-DB" style="outlineConnect=0;dashed=0;verticalLabelPosition=bottom;verticalAlign=top;align=center;html=1;shape=mxgraph.aws3.ec2_compute_container;fillColor=#F58534;gradientColor=none;" vertex="1" parent="1">
          <mxGeometry x="460" y="257.75" width="60" height="34.5" as="geometry" />
        </mxCell>
        <mxCell id="ZpaVgGnAtmKE8XHGyUxR-8" style="edgeStyle=orthogonalEdgeStyle;rounded=0;orthogonalLoop=1;jettySize=auto;html=1;entryX=0;entryY=0.5;entryDx=0;entryDy=0;entryPerimeter=0;" edge="1" parent="1" source="ZpaVgGnAtmKE8XHGyUxR-4" target="ZpaVgGnAtmKE8XHGyUxR-7">
          <mxGeometry relative="1" as="geometry" />
        </mxCell>
        <mxCell id="ZpaVgGnAtmKE8XHGyUxR-9" value="User" style="shape=umlActor;verticalLabelPosition=bottom;verticalAlign=top;html=1;outlineConnect=0;" vertex="1" parent="1">
          <mxGeometry x="130" y="245" width="30" height="60" as="geometry" />
        </mxCell>
        <mxCell id="ZpaVgGnAtmKE8XHGyUxR-10" style="edgeStyle=orthogonalEdgeStyle;rounded=0;orthogonalLoop=1;jettySize=auto;html=1;entryX=0;entryY=0.5;entryDx=0;entryDy=0;entryPerimeter=0;" edge="1" parent="1" source="ZpaVgGnAtmKE8XHGyUxR-9" target="ZpaVgGnAtmKE8XHGyUxR-4">
          <mxGeometry relative="1" as="geometry" />
        </mxCell>
        <mxCell id="ZpaVgGnAtmKE8XHGyUxR-11" value="python-app" style="outlineConnect=0;dashed=0;verticalLabelPosition=bottom;verticalAlign=top;align=center;html=1;shape=mxgraph.aws3.ec2_compute_container;fillColor=#F58534;gradientColor=none;" vertex="1" parent="1">
          <mxGeometry x="580" y="257.75" width="60" height="34.5" as="geometry" />
        </mxCell>
        <mxCell id="ZpaVgGnAtmKE8XHGyUxR-13" style="edgeStyle=orthogonalEdgeStyle;rounded=0;orthogonalLoop=1;jettySize=auto;html=1;entryX=1;entryY=0.5;entryDx=0;entryDy=0;entryPerimeter=0;" edge="1" parent="1" source="ZpaVgGnAtmKE8XHGyUxR-11" target="ZpaVgGnAtmKE8XHGyUxR-7">
          <mxGeometry relative="1" as="geometry" />
        </mxCell>
        <mxCell id="ZpaVgGnAtmKE8XHGyUxR-14" value="" style="endArrow=none;dashed=1;html=1;dashPattern=1 3;strokeWidth=2;rounded=0;" edge="1" parent="1">
          <mxGeometry width="50" height="50" relative="1" as="geometry">
            <mxPoint x="20" y="460" as="sourcePoint" />
            <mxPoint x="840" y="460" as="targetPoint" />
          </mxGeometry>
        </mxCell>
        <mxCell id="ZpaVgGnAtmKE8XHGyUxR-15" value="" style="rounded=1;arcSize=10;dashed=0;fillColor=none;gradientColor=none;strokeWidth=2;" vertex="1" parent="1">
          <mxGeometry x="210" y="540" width="490" height="330" as="geometry" />
        </mxCell>
        <mxCell id="ZpaVgGnAtmKE8XHGyUxR-16" value="" style="dashed=0;html=1;shape=mxgraph.aws3.virtual_private_cloud;fillColor=#F58536;gradientColor=none;dashed=0;" vertex="1" parent="1">
          <mxGeometry x="230" y="520" width="52" height="36" as="geometry" />
        </mxCell>
        <mxCell id="ZpaVgGnAtmKE8XHGyUxR-17" value="" style="rounded=1;arcSize=10;dashed=1;fillColor=none;gradientColor=none;dashPattern=8 3 1 3;strokeWidth=2;" vertex="1" parent="1">
          <mxGeometry x="240" y="610" width="160" height="220" as="geometry" />
        </mxCell>
        <mxCell id="ZpaVgGnAtmKE8XHGyUxR-18" value="Public Subnet" style="text;html=1;align=center;verticalAlign=middle;resizable=0;points=[];autosize=1;strokeColor=none;fillColor=none;" vertex="1" parent="1">
          <mxGeometry x="235" y="580" width="100" height="30" as="geometry" />
        </mxCell>
        <mxCell id="ZpaVgGnAtmKE8XHGyUxR-23" style="edgeStyle=orthogonalEdgeStyle;rounded=0;orthogonalLoop=1;jettySize=auto;html=1;" edge="1" parent="1" source="ZpaVgGnAtmKE8XHGyUxR-19" target="ZpaVgGnAtmKE8XHGyUxR-22">
          <mxGeometry relative="1" as="geometry" />
        </mxCell>
        <mxCell id="ZpaVgGnAtmKE8XHGyUxR-19" value="mysql-UI" style="outlineConnect=0;dashed=0;verticalLabelPosition=bottom;verticalAlign=top;align=center;html=1;shape=mxgraph.aws3.ec2_compute_container;fillColor=#F58534;gradientColor=none;" vertex="1" parent="1">
          <mxGeometry x="290" y="620" width="60" height="34.5" as="geometry" />
        </mxCell>
        <mxCell id="ZpaVgGnAtmKE8XHGyUxR-20" value="" style="rounded=1;arcSize=10;dashed=1;fillColor=none;gradientColor=none;dashPattern=8 3 1 3;strokeWidth=2;" vertex="1" parent="1">
          <mxGeometry x="510" y="610" width="160" height="220" as="geometry" />
        </mxCell>
        <mxCell id="ZpaVgGnAtmKE8XHGyUxR-21" value="Private Subnet" style="text;html=1;align=center;verticalAlign=middle;resizable=0;points=[];autosize=1;strokeColor=none;fillColor=none;" vertex="1" parent="1">
          <mxGeometry x="500" y="580" width="100" height="30" as="geometry" />
        </mxCell>
        <mxCell id="ZpaVgGnAtmKE8XHGyUxR-22" value="mysql-DB" style="outlineConnect=0;dashed=0;verticalLabelPosition=bottom;verticalAlign=top;align=center;html=1;shape=mxgraph.aws3.ec2_compute_container;fillColor=#F58534;gradientColor=none;" vertex="1" parent="1">
          <mxGeometry x="560" y="643.75" width="60" height="34.5" as="geometry" />
        </mxCell>
        <mxCell id="ZpaVgGnAtmKE8XHGyUxR-25" style="edgeStyle=orthogonalEdgeStyle;rounded=0;orthogonalLoop=1;jettySize=auto;html=1;" edge="1" parent="1" source="ZpaVgGnAtmKE8XHGyUxR-24" target="ZpaVgGnAtmKE8XHGyUxR-19">
          <mxGeometry relative="1" as="geometry" />
        </mxCell>
        <mxCell id="ZpaVgGnAtmKE8XHGyUxR-24" value="User" style="shape=umlActor;verticalLabelPosition=bottom;verticalAlign=top;html=1;outlineConnect=0;" vertex="1" parent="1">
          <mxGeometry x="115" y="650" width="30" height="60" as="geometry" />
        </mxCell>
        <mxCell id="ZpaVgGnAtmKE8XHGyUxR-26" value="NAT" style="outlineConnect=0;dashed=0;verticalLabelPosition=bottom;verticalAlign=top;align=center;html=1;shape=mxgraph.aws3.vpc_nat_gateway;fillColor=#F58534;gradientColor=none;" vertex="1" parent="1">
          <mxGeometry x="300.5" y="762.5" width="39" height="42" as="geometry" />
        </mxCell>
        <mxCell id="ZpaVgGnAtmKE8XHGyUxR-27" style="edgeStyle=orthogonalEdgeStyle;rounded=0;orthogonalLoop=1;jettySize=auto;html=1;entryX=1;entryY=0.5;entryDx=0;entryDy=0;entryPerimeter=0;" edge="1" parent="1" source="ZpaVgGnAtmKE8XHGyUxR-22" target="ZpaVgGnAtmKE8XHGyUxR-26">
          <mxGeometry relative="1" as="geometry">
            <Array as="points">
              <mxPoint x="590" y="780" />
              <mxPoint x="340" y="780" />
            </Array>
          </mxGeometry>
        </mxCell>
        <mxCell id="ZpaVgGnAtmKE8XHGyUxR-28" value="IGW" style="outlineConnect=0;dashed=0;verticalLabelPosition=bottom;verticalAlign=top;align=center;html=1;shape=mxgraph.aws3.internet_gateway;fillColor=#F58534;gradientColor=none;" vertex="1" parent="1">
          <mxGeometry x="425" y="830" width="49.5" height="52" as="geometry" />
        </mxCell>
        <mxCell id="ZpaVgGnAtmKE8XHGyUxR-29" value="Internet" style="ellipse;shape=cloud;whiteSpace=wrap;html=1;" vertex="1" parent="1">
          <mxGeometry x="389.75" y="950" width="120" height="80" as="geometry" />
        </mxCell>
        <mxCell id="ZpaVgGnAtmKE8XHGyUxR-30" style="edgeStyle=orthogonalEdgeStyle;rounded=0;orthogonalLoop=1;jettySize=auto;html=1;entryX=0.5;entryY=0.125;entryDx=0;entryDy=0;entryPerimeter=0;" edge="1" parent="1" source="ZpaVgGnAtmKE8XHGyUxR-28" target="ZpaVgGnAtmKE8XHGyUxR-29">
          <mxGeometry relative="1" as="geometry" />
        </mxCell>
        <mxCell id="ZpaVgGnAtmKE8XHGyUxR-33" style="edgeStyle=orthogonalEdgeStyle;rounded=0;orthogonalLoop=1;jettySize=auto;html=1;entryX=0;entryY=0.5;entryDx=0;entryDy=0;entryPerimeter=0;" edge="1" parent="1" source="ZpaVgGnAtmKE8XHGyUxR-26" target="ZpaVgGnAtmKE8XHGyUxR-28">
          <mxGeometry relative="1" as="geometry">
            <Array as="points">
              <mxPoint x="320" y="856" />
            </Array>
          </mxGeometry>
        </mxCell>
        <mxCell id="ZpaVgGnAtmKE8XHGyUxR-34" value="&lt;font style=&quot;font-size: 36px;&quot;&gt;Today:&lt;/font&gt;" style="text;html=1;align=center;verticalAlign=middle;resizable=0;points=[];autosize=1;strokeColor=none;fillColor=none;" vertex="1" parent="1">
          <mxGeometry x="45" y="496" width="130" height="60" as="geometry" />
        </mxCell>
        <mxCell id="ZpaVgGnAtmKE8XHGyUxR-35" value="" style="endArrow=none;dashed=1;html=1;dashPattern=1 3;strokeWidth=2;rounded=0;" edge="1" parent="1">
          <mxGeometry width="50" height="50" relative="1" as="geometry">
            <mxPoint x="30" y="1060" as="sourcePoint" />
            <mxPoint x="850" y="1060" as="targetPoint" />
          </mxGeometry>
        </mxCell>
        <mxCell id="ZpaVgGnAtmKE8XHGyUxR-37" value="" style="rounded=1;arcSize=10;dashed=0;fillColor=none;gradientColor=none;strokeWidth=2;" vertex="1" parent="1">
          <mxGeometry x="235" y="1134" width="490" height="330" as="geometry" />
        </mxCell>
        <mxCell id="ZpaVgGnAtmKE8XHGyUxR-38" value="" style="dashed=0;html=1;shape=mxgraph.aws3.virtual_private_cloud;fillColor=#F58536;gradientColor=none;dashed=0;" vertex="1" parent="1">
          <mxGeometry x="255" y="1114" width="52" height="36" as="geometry" />
        </mxCell>
        <mxCell id="ZpaVgGnAtmKE8XHGyUxR-39" value="" style="rounded=1;arcSize=10;dashed=1;fillColor=none;gradientColor=none;dashPattern=8 3 1 3;strokeWidth=2;" vertex="1" parent="1">
          <mxGeometry x="265" y="1204" width="160" height="220" as="geometry" />
        </mxCell>
        <mxCell id="ZpaVgGnAtmKE8XHGyUxR-40" value="Public Subnet" style="text;html=1;align=center;verticalAlign=middle;resizable=0;points=[];autosize=1;strokeColor=none;fillColor=none;" vertex="1" parent="1">
          <mxGeometry x="260" y="1174" width="100" height="30" as="geometry" />
        </mxCell>
        <mxCell id="ZpaVgGnAtmKE8XHGyUxR-41" style="edgeStyle=orthogonalEdgeStyle;rounded=0;orthogonalLoop=1;jettySize=auto;html=1;entryX=0;entryY=0.5;entryDx=0;entryDy=0;entryPerimeter=0;" edge="1" parent="1" source="ZpaVgGnAtmKE8XHGyUxR-42" target="ZpaVgGnAtmKE8XHGyUxR-55">
          <mxGeometry relative="1" as="geometry">
            <mxPoint x="585" y="1300.5" as="targetPoint" />
          </mxGeometry>
        </mxCell>
        <mxCell id="ZpaVgGnAtmKE8XHGyUxR-42" value="mysql-UI" style="outlineConnect=0;dashed=0;verticalLabelPosition=bottom;verticalAlign=top;align=center;html=1;shape=mxgraph.aws3.ec2_compute_container;fillColor=#F58534;gradientColor=none;" vertex="1" parent="1">
          <mxGeometry x="315" y="1236" width="60" height="34.5" as="geometry" />
        </mxCell>
        <mxCell id="ZpaVgGnAtmKE8XHGyUxR-43" value="" style="rounded=1;arcSize=10;dashed=1;fillColor=none;gradientColor=none;dashPattern=8 3 1 3;strokeWidth=2;" vertex="1" parent="1">
          <mxGeometry x="535" y="1204" width="160" height="220" as="geometry" />
        </mxCell>
        <mxCell id="ZpaVgGnAtmKE8XHGyUxR-44" value="Private Subnet" style="text;html=1;align=center;verticalAlign=middle;resizable=0;points=[];autosize=1;strokeColor=none;fillColor=none;" vertex="1" parent="1">
          <mxGeometry x="525" y="1174" width="100" height="30" as="geometry" />
        </mxCell>
        <mxCell id="ZpaVgGnAtmKE8XHGyUxR-46" style="edgeStyle=orthogonalEdgeStyle;rounded=0;orthogonalLoop=1;jettySize=auto;html=1;" edge="1" parent="1" source="ZpaVgGnAtmKE8XHGyUxR-47" target="ZpaVgGnAtmKE8XHGyUxR-42">
          <mxGeometry relative="1" as="geometry" />
        </mxCell>
        <mxCell id="ZpaVgGnAtmKE8XHGyUxR-62" style="edgeStyle=orthogonalEdgeStyle;rounded=0;orthogonalLoop=1;jettySize=auto;html=1;" edge="1" parent="1" source="ZpaVgGnAtmKE8XHGyUxR-47" target="ZpaVgGnAtmKE8XHGyUxR-61">
          <mxGeometry relative="1" as="geometry" />
        </mxCell>
        <mxCell id="ZpaVgGnAtmKE8XHGyUxR-47" value="User" style="shape=umlActor;verticalLabelPosition=bottom;verticalAlign=top;html=1;outlineConnect=0;" vertex="1" parent="1">
          <mxGeometry x="145" y="1270.5" width="30" height="60" as="geometry" />
        </mxCell>
        <mxCell id="ZpaVgGnAtmKE8XHGyUxR-50" value="IGW" style="outlineConnect=0;dashed=0;verticalLabelPosition=bottom;verticalAlign=top;align=center;html=1;shape=mxgraph.aws3.internet_gateway;fillColor=#F58534;gradientColor=none;" vertex="1" parent="1">
          <mxGeometry x="450" y="1424" width="49.5" height="52" as="geometry" />
        </mxCell>
        <mxCell id="ZpaVgGnAtmKE8XHGyUxR-51" value="Internet" style="ellipse;shape=cloud;whiteSpace=wrap;html=1;" vertex="1" parent="1">
          <mxGeometry x="414.75" y="1544" width="120" height="80" as="geometry" />
        </mxCell>
        <mxCell id="ZpaVgGnAtmKE8XHGyUxR-52" style="edgeStyle=orthogonalEdgeStyle;rounded=0;orthogonalLoop=1;jettySize=auto;html=1;entryX=0.5;entryY=0.125;entryDx=0;entryDy=0;entryPerimeter=0;" edge="1" parent="1" source="ZpaVgGnAtmKE8XHGyUxR-50" target="ZpaVgGnAtmKE8XHGyUxR-51">
          <mxGeometry relative="1" as="geometry" />
        </mxCell>
        <mxCell id="ZpaVgGnAtmKE8XHGyUxR-54" value="&lt;font style=&quot;font-size: 36px;&quot;&gt;Future:&lt;/font&gt;" style="text;html=1;align=center;verticalAlign=middle;resizable=0;points=[];autosize=1;strokeColor=none;fillColor=none;" vertex="1" parent="1">
          <mxGeometry x="65" y="1090" width="140" height="60" as="geometry" />
        </mxCell>
        <mxCell id="ZpaVgGnAtmKE8XHGyUxR-55" value="RDS" style="outlineConnect=0;dashed=0;verticalLabelPosition=bottom;verticalAlign=top;align=center;html=1;shape=mxgraph.aws3.rds;fillColor=#2E73B8;gradientColor=none;" vertex="1" parent="1">
          <mxGeometry x="580" y="1260" width="72" height="81" as="geometry" />
        </mxCell>
        <mxCell id="ZpaVgGnAtmKE8XHGyUxR-57" value="python-app" style="outlineConnect=0;dashed=0;verticalLabelPosition=bottom;verticalAlign=top;align=center;html=1;shape=mxgraph.aws3.ec2_compute_container;fillColor=#F58534;gradientColor=none;" vertex="1" parent="1">
          <mxGeometry x="290" y="690" width="60" height="34.5" as="geometry" />
        </mxCell>
        <mxCell id="ZpaVgGnAtmKE8XHGyUxR-58" style="edgeStyle=orthogonalEdgeStyle;rounded=0;orthogonalLoop=1;jettySize=auto;html=1;entryX=0;entryY=0.5;entryDx=0;entryDy=0;entryPerimeter=0;" edge="1" parent="1" source="ZpaVgGnAtmKE8XHGyUxR-57" target="ZpaVgGnAtmKE8XHGyUxR-22">
          <mxGeometry relative="1" as="geometry" />
        </mxCell>
        <mxCell id="ZpaVgGnAtmKE8XHGyUxR-60" style="edgeStyle=orthogonalEdgeStyle;rounded=0;orthogonalLoop=1;jettySize=auto;html=1;entryX=0;entryY=0.5;entryDx=0;entryDy=0;entryPerimeter=0;" edge="1" parent="1" source="ZpaVgGnAtmKE8XHGyUxR-24" target="ZpaVgGnAtmKE8XHGyUxR-57">
          <mxGeometry relative="1" as="geometry" />
        </mxCell>
        <mxCell id="ZpaVgGnAtmKE8XHGyUxR-61" value="python-app" style="outlineConnect=0;dashed=0;verticalLabelPosition=bottom;verticalAlign=top;align=center;html=1;shape=mxgraph.aws3.ec2_compute_container;fillColor=#F58534;gradientColor=none;" vertex="1" parent="1">
          <mxGeometry x="315" y="1330.5" width="60" height="34.5" as="geometry" />
        </mxCell>
        <mxCell id="ZpaVgGnAtmKE8XHGyUxR-63" style="edgeStyle=orthogonalEdgeStyle;rounded=0;orthogonalLoop=1;jettySize=auto;html=1;entryX=0;entryY=0.5;entryDx=0;entryDy=0;entryPerimeter=0;" edge="1" parent="1" source="ZpaVgGnAtmKE8XHGyUxR-61" target="ZpaVgGnAtmKE8XHGyUxR-55">
          <mxGeometry relative="1" as="geometry" />
        </mxCell>
      </root>
    </mxGraphModel>
  </diagram>
</mxfile>
